<svg xmlns="http://www.w3.org/2000/svg" viewBox="0 0 450 680" width="100%" height="100%" style="border-radius: 20px; overflow: hidden; background: #2E1554;">
  <defs>
    <linearGradient id="bgGradient" x1="0%" y1="0%" x2="0%" y2="100%">
      <stop offset="0%" stop-color="#361765" />
      <stop offset="50%" stop-color="#2D1354" />
      <stop offset="100%" stop-color="#1E0B3C" />
    </linearGradient>
    <filter id="cardShadow" x="-10%" y="-10%" width="120%" height="125%">
      <feDropShadow dx="0" dy="8" stdDeviation="12" flood-color="#000000" flood-opacity="0.45" />
    </filter>
  </defs>

  <!-- Background Flyer -->
  <rect width="450" height="680" rx="24" fill="url(#bgGradient)" />

  <!-- Top Title: PAGA AQUÍ CON -->
  <text x="225" y="62" fill="#FFFFFF" font-family="'Plus Jakarta Sans', system-ui, -apple-system, sans-serif" font-size="15" font-weight="800" letter-spacing="2.5" text-anchor="middle">PAGA AQUÍ CON</text>

  <!-- Logos: deuna! | BANCO PICHINCHA -->
  <g transform="translate(70, 85)">
    <!-- deuna! logo -->
    <text x="50" y="32" fill="#24E5A3" font-family="'Plus Jakarta Sans', 'Segoe UI', system-ui, sans-serif" font-size="34" font-weight="900" font-style="italic" letter-spacing="-1">deuna!</text>
    
    <!-- Divider -->
    <line x1="150" y1="8" x2="150" y2="40" stroke="#FFFFFF" stroke-opacity="0.3" stroke-width="1.5" />
    
    <!-- Banco Pichincha -->
    <g transform="translate(170, 8)">
      <!-- Yellow square icon with Pichincha symbol -->
      <rect x="0" y="3" width="26" height="26" rx="4" fill="#FFDD00" />
      <path d="M7 9 H19 V15 H13 V21 H7 Z" fill="#0A1E42" />
      <path d="M13 15 H19 V21 H13 Z" fill="#0A1E42" opacity="0.4" />
      <!-- Banco Pichincha Text -->
      <text x="34" y="16" fill="#FFFFFF" font-family="'Plus Jakarta Sans', system-ui, sans-serif" font-size="12" font-weight="800" letter-spacing="0.5">BANCO</text>
      <text x="34" y="27" fill="#FFFFFF" font-family="'Plus Jakarta Sans', system-ui, sans-serif" font-size="12" font-weight="800" letter-spacing="0.5">PICHINCHA</text>
    </g>
  </g>

  <!-- Central White Card Container -->
  <g transform="translate(48, 148)" filter="url(#cardShadow)">
    <rect width="354" height="340" rx="20" fill="#FFFFFF" />
    
    <!-- Outer QR Frame -->
    <g transform="translate(32, 22)">
      <!-- 29x29 Module Matrix QR Code for Deuna / Sukhjinder Boparai -->
      <!-- TOP LEFT FINDER PATTERN (7x7) -->
      <rect x="0" y="0" width="63" height="63" rx="8" fill="#000000" />
      <rect x="9" y="9" width="45" height="45" rx="5" fill="#FFFFFF" />
      <rect x="18" y="18" width="27" height="27" rx="3" fill="#000000" />

      <!-- TOP RIGHT FINDER PATTERN (7x7) -->
      <rect x="227" y="0" width="63" height="63" rx="8" fill="#000000" />
      <rect x="236" y="9" width="45" height="45" rx="5" fill="#FFFFFF" />
      <rect x="245" y="18" width="27" height="27" rx="3" fill="#000000" />

      <!-- BOTTOM LEFT FINDER PATTERN (7x7) -->
      <rect x="0" y="197" width="63" height="63" rx="8" fill="#000000" />
      <rect x="9" y="206" width="45" height="45" rx="5" fill="#FFFFFF" />
      <rect x="18" y="215" width="27" height="27" rx="3" fill="#000000" />

      <!-- TIMING PATTERNS & ALIGNMENT MODULES -->
      <!-- Top Horizontal Timing -->
      <rect x="72" y="27" width="9" height="9" fill="#000000" />
      <rect x="90" y="27" width="9" height="9" fill="#000000" />
      <rect x="108" y="27" width="9" height="9" fill="#000000" />
      <rect x="126" y="27" width="9" height="9" fill="#000000" />
      <rect x="144" y="27" width="9" height="9" fill="#000000" />
      <rect x="162" y="27" width="9" height="9" fill="#000000" />
      <rect x="180" y="27" width="9" height="9" fill="#000000" />
      <rect x="198" y="27" width="9" height="9" fill="#000000" />
      <rect x="216" y="27" width="9" height="9" fill="#000000" />

      <!-- Left Vertical Timing -->
      <rect x="27" y="72" width="9" height="9" fill="#000000" />
      <rect x="27" y="90" width="9" height="9" fill="#000000" />
      <rect x="27" y="108" width="9" height="9" fill="#000000" />
      <rect x="27" y="126" width="9" height="9" fill="#000000" />
      <rect x="27" y="144" width="9" height="9" fill="#000000" />
      <rect x="27" y="162" width="9" height="9" fill="#000000" />
      <rect x="27" y="180" width="9" height="9" fill="#000000" />

      <!-- DATA CELLS & SCATTERED MODULES (Matching Deuna QR Matrix) -->
      <!-- Row 0-6 surrounds -->
      <rect x="72" y="0" width="9" height="9" fill="#000000" />
      <rect x="90" y="0" width="18" height="9" fill="#000000" />
      <rect x="126" y="0" width="9" height="9" fill="#000000" />
      <rect x="153" y="0" width="18" height="9" fill="#000000" />
      <rect x="189" y="0" width="9" height="9" fill="#000000" />
      <rect x="207" y="0" width="9" height="9" fill="#000000" />

      <rect x="72" y="9" width="18" height="9" fill="#000000" />
      <rect x="117" y="9" width="9" height="9" fill="#000000" />
      <rect x="144" y="9" width="9" height="9" fill="#000000" />
      <rect x="171" y="9" width="18" height="9" fill="#000000" />
      <rect x="207" y="9" width="9" height="9" fill="#000000" />

      <rect x="72" y="18" width="9" height="9" fill="#000000" />
      <rect x="99" y="18" width="18" height="9" fill="#000000" />
      <rect x="135" y="18" width="18" height="9" fill="#000000" />
      <rect x="180" y="18" width="9" height="9" fill="#000000" />
      <rect x="207" y="18" width="9" height="9" fill="#000000" />

      <rect x="72" y="36" width="18" height="9" fill="#000000" />
      <rect x="108" y="36" width="9" height="9" fill="#000000" />
      <rect x="135" y="36" width="9" height="9" fill="#000000" />
      <rect x="162" y="36" width="18" height="9" fill="#000000" />
      <rect x="198" y="36" width="18" height="9" fill="#000000" />

      <rect x="81" y="45" width="9" height="9" fill="#000000" />
      <rect x="99" y="45" width="18" height="9" fill="#000000" />
      <rect x="126" y="45" width="18" height="9" fill="#000000" />
      <rect x="153" y="45" width="9" height="9" fill="#000000" />
      <rect x="180" y="45" width="18" height="9" fill="#000000" />
      <rect x="216" y="45" width="9" height="9" fill="#000000" />

      <rect x="72" y="54" width="9" height="9" fill="#000000" />
      <rect x="90" y="54" width="9" height="9" fill="#000000" />
      <rect x="117" y="54" width="27" height="9" fill="#000000" />
      <rect x="162" y="54" width="9" height="9" fill="#000000" />
      <rect x="189" y="54" width="18" height="9" fill="#000000" />

      <!-- Row 7 to 20 -->
      <rect x="0" y="72" width="18" height="9" fill="#000000" />
      <rect x="45" y="72" width="9" height="9" fill="#000000" />
      <rect x="63" y="72" width="18" height="9" fill="#000000" />
      <rect x="99" y="72" width="18" height="9" fill="#000000" />
      <rect x="126" y="72" width="9" height="9" fill="#000000" />
      <rect x="144" y="72" width="18" height="9" fill="#000000" />
      <rect x="180" y="72" width="9" height="9" fill="#000000" />
      <rect x="198" y="72" width="27" height="9" fill="#000000" />
      <rect x="234" y="72" width="9" height="9" fill="#000000" />
      <rect x="252" y="72" width="18" height="9" fill="#000000" />
      <rect x="279" y="72" width="9" height="9" fill="#000000" />

      <rect x="9" y="81" width="9" height="9" fill="#000000" />
      <rect x="36" y="81" width="18" height="9" fill="#000000" />
      <rect x="72" y="81" width="9" height="9" fill="#000000" />
      <rect x="90" y="81" width="18" height="9" fill="#000000" />
      <rect x="117" y="81" width="9" height="9" fill="#000000" />
      <rect x="135" y="81" width="9" height="9" fill="#000000" />
      <rect x="162" y="81" width="18" height="9" fill="#000000" />
      <rect x="189" y="81" width="9" height="9" fill="#000000" />
      <rect x="216" y="81" width="18" height="9" fill="#000000" />
      <rect x="243" y="81" width="9" height="9" fill="#000000" />
      <rect x="270" y="81" width="18" height="9" fill="#000000" />

      <rect x="0" y="90" width="9" height="9" fill="#000000" />
      <rect x="18" y="90" width="18" height="9" fill="#000000" />
      <rect x="54" y="90" width="18" height="9" fill="#000000" />
      <rect x="81" y="90" width="9" height="9" fill="#000000" />
      <rect x="108" y="90" width="18" height="9" fill="#000000" />
      <rect x="144" y="90" width="9" height="9" fill="#000000" />
      <rect x="171" y="90" width="18" height="9" fill="#000000" />
      <rect x="207" y="90" width="9" height="9" fill="#000000" />
      <rect x="225" y="90" width="27" height="9" fill="#000000" />
      <rect x="261" y="90" width="9" height="9" fill="#000000" />
      <rect x="279" y="90" width="9" height="9" fill="#000000" />

      <rect x="9" y="99" width="9" height="9" fill="#000000" />
      <rect x="36" y="99" width="9" height="9" fill="#000000" />
      <rect x="63" y="99" width="27" height="9" fill="#000000" />
      <rect x="99" y="99" width="9" height="9" fill="#000000" />
      <rect x="126" y="99" width="9" height="9" fill="#000000" />
      <rect x="153" y="99" width="18" height="9" fill="#000000" />
      <rect x="180" y="99" width="27" height="9" fill="#000000" />
      <rect x="216" y="99" width="9" height="9" fill="#000000" />
      <rect x="243" y="99" width="18" height="9" fill="#000000" />
      <rect x="270" y="99" width="9" height="9" fill="#000000" />

      <!-- Center Logo Area (d! emblem) -->
      <!-- Center white badge with rounded contour -->
      <rect x="108" y="108" width="74" height="54" rx="14" fill="#FFFFFF" />
      <rect x="110" y="110" width="70" height="50" rx="12" fill="#FFFFFF" stroke="#000000" stroke-width="1.5" stroke-opacity="0.08" />
      
      <!-- d! logo symbol inside QR -->
      <text x="145" y="146" fill="#000000" font-family="'Plus Jakarta Sans', system-ui, sans-serif" font-size="34" font-weight="900" font-style="italic" text-anchor="middle" letter-spacing="-2">d!</text>

      <!-- Modules surrounding center logo -->
      <rect x="0" y="108" width="27" height="9" fill="#000000" />
      <rect x="45" y="108" width="9" height="9" fill="#000000" />
      <rect x="63" y="108" width="18" height="9" fill="#000000" />
      <rect x="90" y="108" width="9" height="9" fill="#000000" />
      <rect x="190" y="108" width="9" height="9" fill="#000000" />
      <rect x="207" y="108" width="18" height="9" fill="#000000" />
      <rect x="234" y="108" width="18" height="9" fill="#000000" />
      <rect x="261" y="108" width="18" height="9" fill="#000000" />

      <rect x="9" y="117" width="9" height="9" fill="#000000" />
      <rect x="27" y="117" width="18" height="9" fill="#000000" />
      <rect x="54" y="117" width="9" height="9" fill="#000000" />
      <rect x="72" y="117" width="18" height="9" fill="#000000" />
      <rect x="198" y="117" width="9" height="9" fill="#000000" />
      <rect x="216" y="117" width="27" height="9" fill="#000000" />
      <rect x="252" y="117" width="9" height="9" fill="#000000" />
      <rect x="270" y="117" width="18" height="9" fill="#000000" />

      <rect x="0" y="126" width="18" height="9" fill="#000000" />
      <rect x="36" y="126" width="9" height="9" fill="#000000" />
      <rect x="54" y="126" width="18" height="9" fill="#000000" />
      <rect x="81" y="126" width="18" height="9" fill="#000000" />
      <rect x="189" y="126" width="18" height="9" fill="#000000" />
      <rect x="216" y="126" width="9" height="9" fill="#000000" />
      <rect x="234" y="126" width="18" height="9" fill="#000000" />
      <rect x="261" y="126" width="27" height="9" fill="#000000" />

      <rect x="9" y="135" width="9" height="9" fill="#000000" />
      <rect x="27" y="135" width="9" height="9" fill="#000000" />
      <rect x="45" y="135" width="18" height="9" fill="#000000" />
      <rect x="72" y="135" width="9" height="9" fill="#000000" />
      <rect x="90" y="135" width="9" height="9" fill="#000000" />
      <rect x="198" y="135" width="18" height="9" fill="#000000" />
      <rect x="225" y="135" width="9" height="9" fill="#000000" />
      <rect x="243" y="135" width="18" height="9" fill="#000000" />
      <rect x="270" y="135" width="9" height="9" fill="#000000" />

      <rect x="0" y="144" width="9" height="9" fill="#000000" />
      <rect x="18" y="144" width="18" height="9" fill="#000000" />
      <rect x="45" y="144" width="9" height="9" fill="#000000" />
      <rect x="63" y="144" width="27" height="9" fill="#000000" />
      <rect x="189" y="144" width="9" height="9" fill="#000000" />
      <rect x="207" y="144" width="18" height="9" fill="#000000" />
      <rect x="234" y="144" width="9" height="9" fill="#000000" />
      <rect x="252" y="144" width="18" height="9" fill="#000000" />
      <rect x="279" y="144" width="9" height="9" fill="#000000" />

      <rect x="9" y="153" width="9" height="9" fill="#000000" />
      <rect x="27" y="153" width="18" height="9" fill="#000000" />
      <rect x="54" y="153" width="18" height="9" fill="#000000" />
      <rect x="81" y="153" width="9" height="9" fill="#000000" />
      <rect x="99" y="153" width="18" height="9" fill="#000000" />
      <rect x="180" y="153" width="9" height="9" fill="#000000" />
      <rect x="198" y="153" width="18" height="9" fill="#000000" />
      <rect x="225" y="153" width="27" height="9" fill="#000000" />
      <rect x="261" y="153" width="9" height="9" fill="#000000" />
      <rect x="279" y="153" width="9" height="9" fill="#000000" />

      <!-- Lower region modules -->
      <rect x="0" y="162" width="18" height="9" fill="#000000" />
      <rect x="27" y="162" width="9" height="9" fill="#000000" />
      <rect x="45" y="162" width="18" height="9" fill="#000000" />
      <rect x="72" y="162" width="18" height="9" fill="#000000" />
      <rect x="99" y="162" width="9" height="9" fill="#000000" />
      <rect x="117" y="162" width="18" height="9" fill="#000000" />
      <rect x="144" y="162" width="18" height="9" fill="#000000" />
      <rect x="171" y="162" width="9" height="9" fill="#000000" />
      <rect x="189" y="162" width="27" height="9" fill="#000000" />
      <rect x="225" y="162" width="9" height="9" fill="#000000" />
      <rect x="243" y="162" width="18" height="9" fill="#000000" />
      <rect x="270" y="162" width="18" height="9" fill="#000000" />

      <rect x="9" y="171" width="9" height="9" fill="#000000" />
      <rect x="36" y="171" width="18" height="9" fill="#000000" />
      <rect x="63" y="171" width="9" height="9" fill="#000000" />
      <rect x="81" y="171" width="18" height="9" fill="#000000" />
      <rect x="108" y="171" width="18" height="9" fill="#000000" />
      <rect x="135" y="171" width="9" height="9" fill="#000000" />
      <rect x="153" y="171" width="18" height="9" fill="#000000" />
      <rect x="180" y="171" width="9" height="9" fill="#000000" />
      <rect x="198" y="171" width="18" height="9" fill="#000000" />
      <rect x="225" y="171" width="18" height="9" fill="#000000" />
      <rect x="252" y="171" width="9" height="9" fill="#000000" />
      <rect x="270" y="171" width="9" height="9" fill="#000000" />

      <rect x="0" y="180" width="9" height="9" fill="#000000" />
      <rect x="18" y="180" width="18" height="9" fill="#000000" />
      <rect x="45" y="180" width="9" height="9" fill="#000000" />
      <rect x="63" y="180" width="18" height="9" fill="#000000" />
      <rect x="90" y="180" width="9" height="9" fill="#000000" />
      <rect x="117" y="180" width="9" height="9" fill="#000000" />
      <rect x="135" y="180" width="18" height="9" fill="#000000" />
      <rect x="162" y="180" width="18" height="9" fill="#000000" />
      <rect x="189" y="180" width="9" height="9" fill="#000000" />
      <rect x="207" y="180" width="27" height="9" fill="#000000" />
      <rect x="243" y="180" width="9" height="9" fill="#000000" />
      <rect x="261" y="180" width="18" height="9" fill="#000000" />

      <!-- Row 22 to 28 (Right of Bottom-Left finder) -->
      <rect x="72" y="198" width="18" height="9" fill="#000000" />
      <rect x="99" y="198" width="9" height="9" fill="#000000" />
      <rect x="117" y="198" width="18" height="9" fill="#000000" />
      <rect x="144" y="198" width="9" height="9" fill="#000000" />
      <rect x="162" y="198" width="18" height="9" fill="#000000" />
      <rect x="189" y="198" width="18" height="9" fill="#000000" />
      <rect x="216" y="198" width="9" height="9" fill="#000000" />
      <rect x="234" y="198" width="18" height="9" fill="#000000" />
      <rect x="261" y="198" width="9" height="9" fill="#000000" />
      <rect x="279" y="198" width="9" height="9" fill="#000000" />

      <rect x="81" y="207" width="9" height="9" fill="#000000" />
      <rect x="99" y="207" width="18" height="9" fill="#000000" />
      <rect x="126" y="207" width="9" height="9" fill="#000000" />
      <rect x="144" y="207" width="18" height="9" fill="#000000" />
      <rect x="171" y="207" width="9" height="9" fill="#000000" />
      <rect x="189" y="207" width="9" height="9" fill="#000000" />
      <rect x="207" y="207" width="18" height="9" fill="#000000" />
      <rect x="234" y="207" width="9" height="9" fill="#000000" />
      <rect x="252" y="207" width="18" height="9" fill="#000000" />
      <rect x="279" y="207" width="9" height="9" fill="#000000" />

      <rect x="72" y="216" width="9" height="9" fill="#000000" />
      <rect x="90" y="216" width="18" height="9" fill="#000000" />
      <rect x="117" y="216" width="9" height="9" fill="#000000" />
      <rect x="135" y="216" width="18" height="9" fill="#000000" />
      <rect x="162" y="216" width="9" height="9" fill="#000000" />
      <rect x="180" y="216" width="18" height="9" fill="#000000" />
      <rect x="207" y="216" width="9" height="9" fill="#000000" />
      <rect x="225" y="216" width="27" height="9" fill="#000000" />
      <rect x="261" y="216" width="18" height="9" fill="#000000" />

      <rect x="72" y="225" width="18" height="9" fill="#000000" />
      <rect x="99" y="225" width="18" height="9" fill="#000000" />
      <rect x="126" y="225" width="9" height="9" fill="#000000" />
      <rect x="144" y="225" width="18" height="9" fill="#000000" />
      <rect x="171" y="225" width="18" height="9" fill="#000000" />
      <rect x="198" y="225" width="9" height="9" fill="#000000" />
      <rect x="216" y="225" width="18" height="9" fill="#000000" />
      <rect x="243" y="225" width="18" height="9" fill="#000000" />
      <rect x="270" y="225" width="9" height="9" fill="#000000" />

      <rect x="81" y="234" width="9" height="9" fill="#000000" />
      <rect x="99" y="234" width="9" height="9" fill="#000000" />
      <rect x="117" y="234" width="18" height="9" fill="#000000" />
      <rect x="144" y="234" width="9" height="9" fill="#000000" />
      <rect x="162" y="234" width="18" height="9" fill="#000000" />
      <rect x="189" y="234" width="9" height="9" fill="#000000" />
      <rect x="207" y="234" width="18" height="9" fill="#000000" />
      <rect x="234" y="234" width="9" height="9" fill="#000000" />
      <rect x="252" y="234" width="18" height="9" fill="#000000" />
      <rect x="279" y="234" width="9" height="9" fill="#000000" />

      <rect x="72" y="243" width="9" height="9" fill="#000000" />
      <rect x="90" y="243" width="18" height="9" fill="#000000" />
      <rect x="117" y="243" width="9" height="9" fill="#000000" />
      <rect x="135" y="243" width="27" height="9" fill="#000000" />
      <rect x="171" y="243" width="9" height="9" fill="#000000" />
      <rect x="189" y="243" width="18" height="9" fill="#000000" />
      <rect x="216" y="243" width="18" height="9" fill="#000000" />
      <rect x="243" y="243" width="9" height="9" fill="#000000" />
      <rect x="261" y="243" width="18" height="9" fill="#000000" />

      <rect x="72" y="252" width="18" height="9" fill="#000000" />
      <rect x="99" y="252" width="9" height="9" fill="#000000" />
      <rect x="117" y="252" width="18" height="9" fill="#000000" />
      <rect x="144" y="252" width="18" height="9" fill="#000000" />
      <rect x="171" y="252" width="9" height="9" fill="#000000" />
      <rect x="189" y="252" width="9" height="9" fill="#000000" />
      <rect x="207" y="252" width="27" height="9" fill="#000000" />
      <rect x="243" y="252" width="18" height="9" fill="#000000" />
      <rect x="270" y="252" width="18" height="9" fill="#000000" />
    </g>

    <!-- Account Name under QR -->
    <text x="177" y="318" fill="#141416" font-family="'Plus Jakarta Sans', system-ui, sans-serif" font-size="14" font-weight="700" text-anchor="middle">Sukhjinder Boparai</text>
  </g>

  <!-- Numbered Steps (1, 2, 3) -->
  <g transform="translate(48, 510)">
    <!-- Step 1 -->
    <g transform="translate(0, 0)">
      <circle cx="14" cy="14" r="13" fill="#24E5A3" />
      <text x="14" y="19" fill="#0D3B2B" font-family="system-ui, sans-serif" font-size="14" font-weight="900" text-anchor="middle">1</text>
      <text x="36" y="19" fill="#FFFFFF" font-family="'Plus Jakarta Sans', system-ui, sans-serif" font-size="14" font-weight="700">Escoge la opción pagar a QR</text>
    </g>

    <!-- Step 2 -->
    <g transform="translate(0, 36)">
      <circle cx="14" cy="14" r="13" fill="#24E5A3" />
      <text x="14" y="19" fill="#0D3B2B" font-family="system-ui, sans-serif" font-size="14" font-weight="900" text-anchor="middle">2</text>
      <text x="36" y="19" fill="#FFFFFF" font-family="'Plus Jakarta Sans', system-ui, sans-serif" font-size="14" font-weight="700">Escanea el código QR</text>
    </g>

    <!-- Step 3 -->
    <g transform="translate(0, 72)">
      <circle cx="14" cy="14" r="13" fill="#24E5A3" />
      <text x="14" y="19" fill="#0D3B2B" font-family="system-ui, sans-serif" font-size="14" font-weight="900" text-anchor="middle">3</text>
      <text x="36" y="19" fill="#FFFFFF" font-family="'Plus Jakarta Sans', system-ui, sans-serif" font-size="14" font-weight="700">Ingresa el monto, paga y ¡listo!</text>
    </g>
  </g>

  <!-- Footer: DISPONIBLE EN: App Store | Google Play -->
  <g transform="translate(85, 638)">
    <text x="0" y="15" fill="#FFFFFF" fill-opacity="0.7" font-family="'Plus Jakarta Sans', system-ui, sans-serif" font-size="10" font-weight="800" letter-spacing="1">DISPONIBLE EN:</text>
    
    <!-- App Store Pill -->
    <g transform="translate(100, 2)">
      <rect width="84" height="20" rx="10" fill="#000000" fill-opacity="0.35" stroke="#FFFFFF" stroke-opacity="0.2" stroke-width="1" />
      <path d="M12 5 C11 5 10 6 10 7 C10 8 11 9 12 9 C13 9 14 8 14 7 C14 6 13 5 12 5 Z M10 10 C8 10 7 12 7 14 C7 17 9 19 10 19 C11 19 11 18 12 18 C13 18 13 19 14 19 C15 19 17 17 17 14 C17 12 15 10 14 10 C13 10 13 11 12 11 C11 11 11 10 10 10 Z" fill="#FFFFFF" transform="scale(0.8) translate(3, 1)" />
      <text x="26" y="14" fill="#FFFFFF" font-family="system-ui, sans-serif" font-size="9" font-weight="700">App Store</text>
    </g>

    <!-- Google Play Pill -->
    <g transform="translate(192, 2)">
      <rect width="86" height="20" rx="10" fill="#000000" fill-opacity="0.35" stroke="#FFFFFF" stroke-opacity="0.2" stroke-width="1" />
      <!-- Play Icon -->
      <polygon points="10,6 18,10 10,14" fill="#24E5A3" />
      <text x="24" y="14" fill="#FFFFFF" font-family="system-ui, sans-serif" font-size="9" font-weight="700">Google Play</text>
    </g>
  </g>
</svg>
